<svg xmlns="http://www.w3.org/2000/svg" viewBox="0 0 54 54">
  <path d="M25.1 0C18.8 0 16.5 3.8 16.5 8.6v7.9H8.6C3.8 16.5 0 18.8 0 25.1v3.8c0 6.3 3.8 8.6 8.6 8.6h7.9v7.9c0 4.8 2.3 8.6 8.6 8.6h3.8c6.3 0 8.6-3.8 8.6-8.6v-7.9h-9.3c-6.9 0-12.5-5.6-12.5-12.5V16.5h21.2V8.6C37.5 3.8 35.2 0 28.9 0h-3.8Z" fill="#0a63d8"/>
  <path d="M37.5 16.5h7.9c4.8 0 8.6 2.3 8.6 8.6v3.8c0 6.3-3.8 8.6-8.6 8.6H28.2c-6.9 0-12.5-5.6-12.5-12.5v-8.5h21.8Z" fill="#13bfd3"/>
  <path d="M16.5 16.5h20.9v20.9h-9.2c-6.5 0-11.7-5.3-11.7-11.7v-9.2Z" fill="#0c70df"/>
</svg>
